
<svg xmlns="http://www.w3.org/2000/svg" version="1.1" xmlns:xlink="http://www.w3.org/1999/xlink" preserveAspectRatio="none" x="0px" y="0px" width="24px" height="47px" viewBox="0 0 24 47">
<defs>
<radialGradient id="Gradient_1" gradientUnits="userSpaceOnUse" cx="0" cy="0" r="30.2126732514685" fx="0" fy="0" gradientTransform="matrix( -0.9995805319389311, -0.028961356471740553, 0.045924436690902876, -1.4037983215516527, 0.1,-0.05) " spreadMethod="pad">
<stop  offset="0.39215686274509803%" stop-color="#FFFFFF"/>

<stop  offset="35.294117647058826%" stop-color="#FCFB9C"/>

<stop  offset="61.96078431372549%" stop-color="#F59F67"/>

<stop  offset="100%" stop-color="#FFFFFF"/>
</radialGradient>

<g id="Symbol_1_arrow1_0_Layer0_0_FILL">
<path fill="url(#Gradient_1)" stroke="none" d="
M 3.8 -0.9
L 3.8 -12.6
Q 3.9 -13.85 3.8 -15.25
L 3.8 -23 -5.55 -19.25 -5.25 6.3 -11.5 8.3 1.1 23
Q 6.2 12.55 11.2 2.05 11.3 2 11.3 1.9
L 11.5 1.4 4.65 3.5 3.8 3
Q 3.8 1.1 3.8 -0.9 Z"/>
</g>

<path id="Symbol_1_arrow1_0_Layer0_0_1_STROKES" stroke="#999999" stroke-width="1" stroke-linejoin="round" stroke-linecap="round" fill="none" d="
M 3.8 -0.9
Q 3.8 1.1 3.8 3
L 4.65 3.5 11.5 1.4 11.3 1.9
Q 11.3 2 11.2 2.05 6.2 12.55 1.1 23
L -11.5 8.3 -5.25 6.3 -5.55 -19.25 3.8 -23 3.8 -15.25
Q 3.9 -13.85 3.8 -12.6
L 3.8 -0.9 Z"/>
</defs>

<g transform="matrix( 1, 0, 0, 1, 12,23.5) ">
<g transform="matrix( 1, 0, 0, 1, 0,0) ">
<use xlink:href="#Symbol_1_arrow1_0_Layer0_0_FILL"/>

<use xlink:href="#Symbol_1_arrow1_0_Layer0_0_1_STROKES"/>
</g>
</g>
</svg>
